<svg xmlns="http://www.w3.org/2000/svg" viewBox="0 0 256 257">
  <defs>
    <linearGradient id="a" x1="6.01%" x2="235.37%" y1="33.87%" y2="91.69%">
      <stop offset="0%" stop-color="#41d1ff"/>
      <stop offset="100%" stop-color="#bd34fe"/>
    </linearGradient>
    <linearGradient id="b" x1="194.65%" x2="65.2%" y1="2.82%" y2="44.58%">
      <stop offset="0%" stop-color="#ffea83"/>
      <stop offset="8.33%" stop-color="#ffdd35"/>
      <stop offset="100%" stop-color="#ffa800"/>
    </linearGradient>
  </defs>
  <path fill="url(#a)" d="M255.15 37.94L134.9 252.48c-2.48 4.44-8.85 4.47-11.38.05L.83 37.96c-2.74-4.79 1.35-10.65 6.81-9.73l120.34 20.12a6.48 6.48 0 0 0 2.13 0l118.2-20.08c5.44-.92 9.52 4.9 6.84 9.67Z"/>
  <path fill="url(#b)" d="M185.43.06L96.44 17.5a3.24 3.24 0 0 0-2.62 2.73L88.35 71.9a3.24 3.24 0 0 0 4.09 3.45l24.77-6.07a3.24 3.24 0 0 1 3.89 3.88l-7.36 36a3.24 3.24 0 0 0 4.29 3.67l15.3-4.69a3.24 3.24 0 0 1 4.12 3.98l-11.71 40.3c-.73 2.52 2.63 4.37 4.49 2.47l1.25-1.27 72.51-144.75c1.21-2.42-.88-5.18-3.53-4.66Z"/>
</svg>
